<svg xmlns="http://www.w3.org/2000/svg" width="512" height="512" viewBox="0 0 512 512">
  <defs>
    <linearGradient id="bg" x1="0%" y1="0%" x2="100%" y2="100%">
      <stop offset="0%" style="stop-color:#1a1145"/>
      <stop offset="100%" style="stop-color:#0C0B1E"/>
    </linearGradient>
  </defs>
  <rect width="512" height="512" rx="96" fill="url(#bg)"/>
  <g transform="translate(256,256) scale(8)">
    <path d="M0-25l5.5 11.2.5 1h14l-10 8.9-.8.7.8 1.8 4.3 10.4-10.7-6.2-.8-.5-.9.5-10.7 6.2 4.3-10.4.8-1.8-.8-.7-10-8.9h14l.5-1z" fill="#FFD580" stroke="#E3A74A" stroke-width="0.8"/>
  </g>
  <g transform="translate(120,380) scale(3)">
    <path d="M0-8l-6 3 6 3 3 6 3-6 6-3-6-3-3-6z" fill="#FFD580" opacity="0.6"/>
  </g>
  <g transform="translate(400,150) scale(2.5)">
    <path d="M0-6l-4.5 2.25L0 -1.5l1.5 4.5 1.5-4.5 4.5-2.25-4.5-2.25L0-10.5z" fill="#FFD580" opacity="0.5"/>
  </g>
</svg>
